<?xml version="1.0" encoding="iso-8859-1"?>
<!-- Generator: Adobe Illustrator 19.0.0, SVG Export Plug-In . SVG Version: 6.00 Build 0)  -->
<svg version="1.1" id="Capa_1" xmlns="http://www.w3.org/2000/svg" xmlns:xlink="http://www.w3.org/1999/xlink" x="0px" y="0px"
	 viewBox="0 0 512 512" style="enable-background:new 0 0 512 512;" xml:space="preserve">
<g>
	<g>
		<path d="M502,380.722h-15.804V55.062c0-5.522-4.477-10-10-10H35.804c-5.523,0-10,4.478-10,10v325.66H10c-5.523,0-10,4.478-10,10
			v43.464c0,18.059,14.692,32.751,32.751,32.751h446.497c18.059,0,32.752-14.692,32.752-32.751v-43.464
			C512,385.2,507.523,380.722,502,380.722z M45.804,65.062h420.392v315.66h-22.782V97.844c0-5.522-4.477-10-10-10H78.586
			c-5.523,0-10,4.478-10,10v282.878H45.804V65.062z M364.504,352.161l4.365,6.811l-6.826,6.826l-6.81-4.364
			c-3.199-2.05-7.282-2.11-10.54-0.156c-4.796,2.878-9.986,5.025-15.425,6.384c-3.556,0.889-6.341,3.652-7.258,7.201l-1.514,5.859
			h-10.26l-1.514-5.859c-0.917-3.55-3.702-6.313-7.258-7.201c-5.439-1.358-10.629-3.507-15.425-6.384
			c-3.257-1.955-7.341-1.895-10.541,0.156l-6.81,4.364l-6.826-6.826l4.364-6.811c2.05-3.198,2.11-7.282,0.156-10.54
			c-2.877-4.796-5.025-9.985-6.384-15.425c-0.889-3.557-3.651-6.342-7.2-7.258l-5.859-1.515v-10.259l5.859-1.515
			c3.549-0.916,6.311-3.701,7.2-7.258c1.19-4.759,2.983-9.327,5.34-13.608c0.337-0.612,0.685-1.217,1.044-1.817
			c1.955-3.258,1.894-7.342-0.156-10.54l-4.364-6.811l6.827-6.826l6.809,4.364c3.199,2.05,7.283,2.112,10.541,0.156
			c4.796-2.878,9.986-5.025,15.425-6.384c3.556-0.889,6.341-3.651,7.258-7.201l1.514-5.859h10.26l1.514,5.859
			c0.917,3.55,3.702,6.313,7.258,7.201c5.439,1.358,10.629,3.506,15.425,6.384c3.257,1.955,7.341,1.895,10.54-0.156l6.81-4.364
			l6.826,6.826l-4.365,6.811c-2.05,3.198-2.11,7.282-0.156,10.54c2.878,4.796,5.025,9.985,6.385,15.425
			c0.889,3.557,3.651,6.342,7.2,7.258l5.859,1.515v10.259l-5.859,1.515c-3.549,0.916-6.311,3.701-7.2,7.258
			c-1.359,5.439-3.507,10.629-6.385,15.425C362.394,344.879,362.454,348.963,364.504,352.161z M240.682,269.632l5.518,8.61
			c-1.509,3.063-2.81,6.223-3.898,9.463l-0.813,0.21l-4.987-3.196c-3.199-2.048-7.284-2.109-10.54-0.155
			c-4.796,2.878-9.986,5.025-15.425,6.384c-3.556,0.889-6.341,3.651-7.258,7.201l-1.514,5.859h-10.26l-1.514-5.859
			c-0.917-3.55-3.702-6.313-7.258-7.201c-5.439-1.358-10.629-3.506-15.425-6.384c-3.257-1.955-7.341-1.895-10.54,0.156l-6.811,4.364
			l-6.826-6.826l4.364-6.811c2.051-3.196,2.111-7.28,0.157-10.538c-2.877-4.796-5.025-9.985-6.384-15.425
			c-0.888-3.556-3.651-6.341-7.2-7.258l-5.859-1.515l-0.001-10.259l5.86-1.515c3.549-0.916,6.312-3.702,7.2-7.258
			c1.359-5.439,3.507-10.629,6.384-15.425c1.954-3.258,1.894-7.342-0.156-10.54l-4.364-6.811l6.826-6.826l6.81,4.364
			c3.199,2.051,7.283,2.112,10.54,0.156c4.797-2.878,9.986-5.025,15.425-6.384c3.556-0.889,6.341-3.651,7.258-7.201l1.514-5.859
			h10.26l1.514,5.859c0.917,3.55,3.702,6.313,7.258,7.201c5.439,1.358,10.629,3.506,15.425,6.384
			c3.257,1.955,7.341,1.894,10.54-0.155l6.811-4.365l6.826,6.826l-4.365,6.811c-2.05,3.198-2.11,7.282-0.156,10.54
			c2.877,4.796,5.025,9.985,6.385,15.425c0.889,3.557,3.651,6.342,7.2,7.258l5.859,1.515v5.832c-0.045,0.01-0.088,0.029-0.133,0.04
			c-0.393,0.096-0.782,0.21-1.162,0.353c-0.025,0.009-0.048,0.021-0.073,0.031c-0.369,0.143-0.728,0.312-1.08,0.499
			c-0.062,0.033-0.125,0.064-0.186,0.098c-0.355,0.198-0.698,0.42-1.03,0.664c-0.063,0.046-0.124,0.095-0.186,0.143
			c-0.338,0.26-0.667,0.537-0.975,0.845l-18.207,18.208C238.708,260.487,238.147,265.675,240.682,269.632z M388.702,367.424
			c3.322-3.323,3.883-8.511,1.348-12.467l-5.518-8.61c1.508-3.064,2.81-6.224,3.898-9.463l7.864-2.032
			c4.415-1.14,7.499-5.122,7.499-9.682V299.42c0-4.56-3.084-8.542-7.499-9.682l-7.864-2.032c-1.088-3.239-2.39-6.399-3.898-9.463
			l5.518-8.61c2.535-3.956,1.974-9.144-1.348-12.467l-18.208-18.208c-3.323-3.322-8.511-3.884-12.467-1.348l-8.61,5.518
			c-3.063-1.509-6.223-2.811-9.463-3.898l-2.031-7.864c-1.14-4.415-5.123-7.499-9.682-7.499h-25.749
			c-4.56,0-8.542,3.084-9.682,7.499l-2.032,7.864c-1.936,0.65-3.839,1.386-5.715,2.187v-18.711c0-4.56-3.084-8.542-7.499-9.682
			l-7.864-2.032c-1.088-3.239-2.39-6.399-3.898-9.463l5.518-8.61c2.535-3.956,1.974-9.144-1.348-12.467l-18.208-18.208
			c-3.323-3.322-8.511-3.884-12.467-1.348l-8.611,5.518c-3.063-1.509-6.223-2.811-9.463-3.897l-2.032-7.864
			c-1.141-4.415-5.123-7.499-9.682-7.499H183.76c-4.56,0-8.541,3.084-9.682,7.499l-2.032,7.864
			c-3.239,1.087-6.399,2.389-9.462,3.897l-8.61-5.518c-3.957-2.536-9.145-1.975-12.467,1.348L123.3,180.452
			c-3.322,3.323-3.883,8.511-1.348,12.467l5.518,8.61c-1.509,3.063-2.811,6.224-3.899,9.463l-7.864,2.032
			c-4.415,1.14-7.499,5.122-7.499,9.682l0.001,25.749c0,4.56,3.084,8.542,7.498,9.682l7.864,2.032
			c1.088,3.239,2.39,6.399,3.899,9.463l-5.518,8.61c-2.535,3.956-1.974,9.144,1.348,12.467l18.207,18.208
			c3.323,3.322,8.511,3.885,12.467,1.348l8.611-5.518c3.063,1.509,6.223,2.811,9.463,3.898l2.032,7.864
			c1.141,4.415,5.123,7.499,9.682,7.499h25.749c4.559,0,8.542-3.084,9.682-7.499l2.032-7.864c1.936-0.65,3.84-1.385,5.715-2.187
			v18.71c0,4.56,3.084,8.542,7.499,9.682l7.864,2.032c1.088,3.24,2.389,6.399,3.898,9.463l-5.518,8.61
			c-2.535,3.956-1.974,9.144,1.348,12.467l18.207,18.208c3.324,3.322,8.511,3.885,12.467,1.348l0.848-0.544
			c-0.619,1.301-0.976,2.751-0.976,4.287v2.301c0,4.217-1.596,8.059-4.198,10.987c-3.039,3.42-7.455,5.59-12.379,5.59
			s-9.34-2.17-12.379-5.59c-2.602-2.929-4.198-6.77-4.198-10.987v-2.301c0-5.522-4.477-10-10-10H88.586V139.554h263.888
			c5.523,0,10-4.477,10-10c0-5.522-4.477-10-10-10H88.586v-11.709h334.827v272.878h-48.01L388.702,367.424z M492,434.185
			c0,7.031-5.72,12.751-12.752,12.751H32.751c-7.031,0-12.751-5.72-12.751-12.751v-33.464h200.238
			c1.329,6.181,4.226,11.788,8.252,16.381c5.3,6.048,12.56,10.334,20.775,11.87c0.676,0.127,1.358,0.236,2.046,0.325
			c1.006,0.129,2.024,0.221,3.054,0.266c0.542,0.024,1.087,0.036,1.635,0.036c0.548,0,1.093-0.012,1.635-0.036
			c1.03-0.046,2.048-0.137,3.054-0.266c0.688-0.089,1.37-0.198,2.046-0.325c8.215-1.536,15.475-5.822,20.775-11.87
			c4.026-4.593,6.922-10.199,8.252-16.381H492V434.185z"/>
	</g>
</g>
<g>
	<g>
		<path d="M397.82,127.598c-0.13-0.638-0.32-1.268-0.57-1.869c-0.25-0.6-0.56-1.189-0.92-1.729s-0.78-1.061-1.24-1.521
			c-2.32-2.319-5.78-3.39-9.03-2.729c-0.63,0.13-1.26,0.319-1.87,0.569c-0.6,0.25-1.18,0.561-1.72,0.921
			c-0.55,0.359-1.06,0.779-1.52,1.239c-0.46,0.46-0.88,0.98-1.25,1.521c-0.36,0.54-0.67,1.13-0.92,1.729
			c-0.25,0.601-0.44,1.23-0.57,1.87c-0.13,0.641-0.19,1.3-0.19,1.95c0,0.65,0.06,1.31,0.19,1.96c0.13,0.64,0.32,1.26,0.57,1.87
			c0.25,0.6,0.56,1.18,0.92,1.72c0.37,0.55,0.79,1.061,1.25,1.521c0.46,0.47,0.97,0.88,1.52,1.25c0.54,0.359,1.12,0.67,1.72,0.92
			c0.61,0.25,1.24,0.44,1.87,0.569c0.65,0.131,1.31,0.19,1.96,0.19c2.63,0,5.21-1.06,7.07-2.93c0.46-0.46,0.88-0.971,1.24-1.521
			c0.36-0.54,0.67-1.12,0.92-1.72c0.25-0.61,0.44-1.23,0.57-1.87c0.13-0.65,0.2-1.31,0.2-1.96
			C398.02,128.898,397.95,128.237,397.82,127.598z"/>
	</g>
</g>
<g>
	<g>
		<path d="M315.365,264.958c-26.101,0-47.336,21.234-47.336,47.336s21.235,47.336,47.336,47.336
			c26.102,0,47.337-21.234,47.337-47.336S341.467,264.958,315.365,264.958z M315.365,339.63c-15.073,0-27.336-12.263-27.336-27.336
			s12.263-27.336,27.336-27.336s27.337,12.263,27.337,27.336S330.438,339.63,315.365,339.63z"/>
	</g>
</g>
<g>
	<g>
		<path d="M196.635,188.245c-26.101,0-47.336,21.234-47.336,47.336s21.235,47.337,47.336,47.337
			c26.102,0,47.336-21.235,47.336-47.337C243.971,209.479,222.736,188.245,196.635,188.245z M196.635,262.919
			c-15.073,0-27.336-12.264-27.336-27.337s12.262-27.336,27.336-27.336c15.073,0,27.336,12.263,27.336,27.336
			S211.708,262.919,196.635,262.919z"/>
	</g>
</g>
<g>
</g>
<g>
</g>
<g>
</g>
<g>
</g>
<g>
</g>
<g>
</g>
<g>
</g>
<g>
</g>
<g>
</g>
<g>
</g>
<g>
</g>
<g>
</g>
<g>
</g>
<g>
</g>
<g>
</g>
</svg>
